<svg width="20px" height="20x" viewBox="0 0 512 512" baseProfile="tiny" overflow="visible" version="1.1" xml:space="preserve" xmlns="http://www.w3.org/2000/svg" xmlns:xlink="http://www.w3.org/1999/xlink">

<g id="Layer_1"/>

<g id="Layer_2"/>

<g id="Layer_3"/>

<g id="Layer_4"/>

<g id="Layer_5"/>

<g id="Layer_6"/>

<g id="Layer_7"/>

<g id="Layer_8"/>

<g id="Layer_9"/>

<g id="Layer_10"/>

<g id="Layer_11"/>

<g id="Layer_12"/>

<g id="Layer_13"/>

<g id="Layer_14"/>

<g id="Layer_15"/>

<g id="Layer_16"/>

<g id="Layer_17"/>

<g id="Layer_18"/>

<g id="Layer_19"/>

<g id="Layer_20"/>

<g id="Layer_21"/>

<g id="Layer_22"/>

<g id="Layer_23"/>

<g id="Layer_24"/>

<g id="Layer_25"/>

<g id="Layer_26"/>

<g id="Layer_27"/>

<g id="Layer_28"/>

<g id="Layer_29"/>

<g id="Layer_30"/>

<g id="Layer_31"/>

<g id="Layer_32"/>

<g id="Layer_33"/>

<g id="Layer_34"/>

<g id="Layer_35"/>

<g id="Layer_36"/>

<g id="Layer_37"/>

<g id="Layer_38"/>

<g id="Layer_39"/>

<g id="Layer_40"/>

<g id="Layer_41"/>

<g id="Layer_42"/>

<g id="Layer_43"/>

<g id="Layer_44"/>

<g id="Layer_45"/>

<g id="Layer_46"/>

<g id="Layer_47"/>

<g id="Layer_48"/>

<g id="Layer_49"/>

<g id="Layer_50">

<g>

<path d="M443.381,474.21H68.619c-33.755,0-61.119-27.364-61.119-61.119V149.244    c0-33.755,27.364-61.119,61.119-61.119h374.762c33.755,0,61.119,27.364,61.119,61.119v263.846    C504.5,446.846,477.136,474.21,443.381,474.21z" fill="#FFBE73"/>

<path d="M445.171,88.125h-19.414c32.766,0,59.329,26.562,59.329,59.328v267.428    c0,32.766-26.562,59.328-59.329,59.328h19.414c32.766,0,59.329-26.562,59.329-59.328V147.454    C504.5,114.688,477.938,88.125,445.171,88.125z" fill="#FFB25A"/>

<path d="M443.38,88.125H68.62c-33.756,0-61.12,27.364-61.12,61.12v21.18h497v-21.18    C504.5,115.49,477.136,88.125,443.38,88.125z" fill="#FF9000"/>

<path d="M443.38,88.125h-19.414c33.756,0,61.12,27.364,61.12,61.12v21.18H504.5v-21.18    C504.5,115.49,477.135,88.125,443.38,88.125z" fill="#F88000"/>

<path d="M112.963,136.433H85.515c-5.523,0-10-4.477-10-10V47.79c0-5.523,4.477-10,10-10h27.448    c5.523,0,10,4.477,10,10v78.643C122.963,131.956,118.486,136.433,112.963,136.433z" fill="#FFBE73"/>

<path d="M214.727,136.433h-27.448c-5.523,0-10-4.477-10-10V47.79c0-5.523,4.477-10,10-10h27.448    c5.523,0,10,4.477,10,10v78.643C224.727,131.956,220.25,136.433,214.727,136.433z" fill="#FFBE73"/>

<path d="M324.721,136.433h-27.448c-5.523,0-10-4.477-10-10V47.79c0-5.523,4.477-10,10-10h27.448    c5.523,0,10,4.477,10,10v78.643C334.721,131.956,330.244,136.433,324.721,136.433z" fill="#FFBE73"/>

<path d="M426.485,136.433h-27.448c-5.523,0-10-4.477-10-10V47.79c0-5.523,4.477-10,10-10h27.448    c5.523,0,10,4.477,10,10v78.643C436.485,131.956,432.008,136.433,426.485,136.433z" fill="#FFBE73"/>

<path d="M113.256,37.79h-9.707c5.361,0,9.707,4.346,9.707,9.707v79.229c0,5.361-4.346,9.707-9.707,9.707h9.707    c5.361,0,9.707-4.346,9.707-9.707V47.497C122.963,42.136,118.617,37.79,113.256,37.79z" fill="#FFB25A"/>

<path d="M215.02,37.79h-9.707c5.361,0,9.707,4.346,9.707,9.707v79.229c0,5.361-4.346,9.707-9.707,9.707h9.707    c5.361,0,9.707-4.346,9.707-9.707V47.497C224.728,42.136,220.381,37.79,215.02,37.79z" fill="#FFB25A"/>

<path d="M325.014,37.79h-9.707c5.361,0,9.707,4.346,9.707,9.707v79.229c0,5.361-4.346,9.707-9.707,9.707h9.707    c5.361,0,9.707-4.346,9.707-9.707V47.497C334.721,42.136,330.375,37.79,325.014,37.79z" fill="#FFB25A"/>

<path d="M426.778,37.79h-9.707c5.361,0,9.707,4.346,9.707,9.707v79.229c0,5.361-4.346,9.707-9.707,9.707h9.707    c5.361,0,9.707-4.346,9.707-9.707V47.497C436.485,42.136,432.139,37.79,426.778,37.79z" fill="#FFB25A"/>

</g>

<g>

<g>

<path d="M177.275,97.34h-54.32c-4.143,0-7.5-3.358-7.5-7.5s3.357-7.5,7.5-7.5h54.32c4.143,0,7.5,3.358,7.5,7.5     S181.417,97.34,177.275,97.34z"/>

</g>

<g>

<path d="M389.035,97.34h-54.32c-4.143,0-7.5-3.358-7.5-7.5s3.357-7.5,7.5-7.5h54.32c4.143,0,7.5,3.358,7.5,7.5     S393.177,97.34,389.035,97.34z"/>

</g>

<g>

<path d="M443.374,483.42H68.615c-37.837,0-68.62-30.783-68.62-68.62V150.96c0-37.837,30.783-68.62,68.62-68.62h6.89     c4.143,0,7.5,3.358,7.5,7.5s-3.357,7.5-7.5,7.5h-6.89c-29.566,0-53.62,24.054-53.62,53.62V414.8     c0,29.566,24.054,53.62,53.62,53.62h374.76c29.566,0,53.62-24.054,53.62-53.62V150.96c0-29.566-24.054-53.62-53.62-53.62h-6.89     c-4.143,0-7.5-3.358-7.5-7.5s3.357-7.5,7.5-7.5h6.89c37.837,0,68.62,30.783,68.62,68.62V414.8     C511.995,452.637,481.211,483.42,443.374,483.42z"/>

</g>

<g>

<path d="M287.264,97.34h-62.539c-4.143,0-7.5-3.358-7.5-7.5s3.357-7.5,7.5-7.5h62.539c4.143,0,7.5,3.358,7.5,7.5     S291.407,97.34,287.264,97.34z"/>

</g>

<g>

<path d="M287.264,97.34h-62.539c-4.143,0-7.5-3.358-7.5-7.5s3.357-7.5,7.5-7.5h62.539c4.143,0,7.5,3.358,7.5,7.5     S291.407,97.34,287.264,97.34z"/>

</g>

<g>

<path d="M504.495,179.64h-497c-4.143,0-7.5-3.358-7.5-7.5v-21.18c0-37.837,30.783-68.62,68.62-68.62h6.89     c4.143,0,7.5,3.358,7.5,7.5s-3.357,7.5-7.5,7.5h-6.89c-29.566,0-53.62,24.054-53.62,53.62v13.68h482v-13.68     c0-29.566-24.054-53.62-53.62-53.62h-6.89c-4.143,0-7.5-3.358-7.5-7.5s3.357-7.5,7.5-7.5h6.89c37.837,0,68.62,30.783,68.62,68.62     v21.18C511.995,176.282,508.637,179.64,504.495,179.64z"/>

</g>

<g>

<path d="M389.035,97.34h-54.32c-4.143,0-7.5-3.358-7.5-7.5s3.357-7.5,7.5-7.5h54.32c4.143,0,7.5,3.358,7.5,7.5     S393.177,97.34,389.035,97.34z"/>

</g>

<g>

<path d="M177.275,97.34h-54.32c-4.143,0-7.5-3.358-7.5-7.5s3.357-7.5,7.5-7.5h54.32c4.143,0,7.5,3.358,7.5,7.5     S181.417,97.34,177.275,97.34z"/>

</g>

<g>

<path d="M112.957,145.647H85.509c-9.649,0-17.5-7.851-17.5-17.5V49.504c0-9.649,7.851-17.5,17.5-17.5h27.448     c9.649,0,17.5,7.851,17.5,17.5v78.643C130.457,137.796,122.607,145.647,112.957,145.647z M85.509,47.004     c-1.379,0-2.5,1.122-2.5,2.5v78.643c0,1.378,1.121,2.5,2.5,2.5h27.448c1.379,0,2.5-1.122,2.5-2.5V49.504     c0-1.378-1.121-2.5-2.5-2.5H85.509z"/>

</g>

<g>

<path d="M214.722,145.647h-27.448c-9.649,0-17.5-7.851-17.5-17.5V49.504c0-9.649,7.851-17.5,17.5-17.5h27.448     c9.649,0,17.5,7.851,17.5,17.5v78.643C232.222,137.796,224.372,145.647,214.722,145.647z M187.274,47.004     c-1.379,0-2.5,1.122-2.5,2.5v78.643c0,1.378,1.121,2.5,2.5,2.5h27.448c1.379,0,2.5-1.122,2.5-2.5V49.504     c0-1.378-1.121-2.5-2.5-2.5H187.274z"/>

</g>

<g>

<path d="M324.715,145.647h-27.448c-9.649,0-17.5-7.851-17.5-17.5V49.504c0-9.649,7.851-17.5,17.5-17.5h27.448     c9.649,0,17.5,7.851,17.5,17.5v78.643C342.215,137.796,334.365,145.647,324.715,145.647z M297.267,47.004     c-1.379,0-2.5,1.122-2.5,2.5v78.643c0,1.378,1.121,2.5,2.5,2.5h27.448c1.379,0,2.5-1.122,2.5-2.5V49.504     c0-1.378-1.121-2.5-2.5-2.5H297.267z"/>

</g>

<g>

<path d="M426.48,145.647h-27.448c-9.649,0-17.5-7.851-17.5-17.5V49.504c0-9.649,7.851-17.5,17.5-17.5h27.448     c9.649,0,17.5,7.851,17.5,17.5v78.643C443.98,137.796,436.129,145.647,426.48,145.647z M399.032,47.004     c-1.379,0-2.5,1.122-2.5,2.5v78.643c0,1.378,1.121,2.5,2.5,2.5h27.448c1.379,0,2.5-1.122,2.5-2.5V49.504     c0-1.378-1.121-2.5-2.5-2.5H399.032z"/>

</g>

<g>

<g>

<path d="M191.036,389.748c-25.721,0-27.508-0.596-28.517-0.932c-2.629-0.877-4.585-2.839-5.367-5.385      c-1.431-4.653,0.281-6.896,8.512-17.672c6.948-9.098,19.883-26.034,41.544-56.984c6.905-9.866,11.355-18.812,13.23-26.598      l0.559-4.374c-0.24-14.868-12.41-26.89-27.334-26.89c-13.036,0-24.317,9.266-26.825,22.031      c-0.798,4.065-4.737,6.712-8.805,5.914c-4.064-0.798-6.713-4.74-5.914-8.805c3.886-19.782,21.357-34.14,41.544-34.14      c23.345,0,42.338,18.993,42.338,42.338c0,0.318-0.021,0.635-0.061,0.951l-0.673,5.267c-0.032,0.25-0.076,0.498-0.133,0.744      c-2.261,9.746-7.521,20.568-15.638,32.164c-21.7,31.005-34.729,48.082-41.776,57.31c13.314,0.118,35.841-0.012,56.457-0.271      c0.031,0,0.063,0,0.096,0c4.099,0,7.445,3.296,7.497,7.406c0.053,4.142-3.263,7.542-7.404,7.594      C215.198,389.654,201.235,389.748,191.036,389.748z M166.361,374.359"/>

</g>

</g>

<g>

<g>

<path d="M335.8,388.429c-0.021,0-0.043,0-0.065,0c-4.143-0.036-7.471-3.422-7.436-7.564c0.087-10.037,0.175-21.199,0.254-32.619      h-60.539c-2.653,0-5.109-1.402-6.458-3.687c-1.35-2.285-1.391-5.113-0.109-7.436c4.667-8.459,45.816-82.916,53.491-92.333      c7.255-8.9,14.692-7.799,17.55-6.914c6.121,1.896,10.488,8.066,11.126,15.718c0.413,4.965,0.256,45.434,0.04,79.652h9.857      c4.143,0,7.5,3.358,7.5,7.5s-3.357,7.5-7.5,7.5h-9.957c-0.114,16.163-0.223,28.986-0.255,32.748      C343.263,385.114,339.913,388.429,335.8,388.429z M280.739,333.246h47.914c0.236-37.862,0.346-74.403,0.013-78.407      c-0.078-0.937-0.314-1.667-0.546-2.155c-0.396,0.312-0.929,0.814-1.555,1.583C321.954,259.924,298.559,301.165,280.739,333.246z      "/>

</g>

</g>

</g>

</g>

</svg>